<?xml version="1.0" standalone="no"?>
<!DOCTYPE svg PUBLIC "-//W3C//DTD SVG 20010904//EN"
 "http://www.w3.org/TR/2001/REC-SVG-20010904/DTD/svg10.dtd">
<svg version="1.0" xmlns="http://www.w3.org/2000/svg"
 width="981.000000pt" height="980.000000pt" viewBox="0 0 981.000000 980.000000"
 preserveAspectRatio="xMidYMid meet">

<g transform="translate(0.000000,980.000000) scale(0.100000,-0.100000)"
fill="#ffffff" stroke="#ffffff">
<path d="M5210 9784 c-187 -50 -313 -232 -297 -427 15 -179 156 -333 336 -367
34 -6 609 -10 1610 -10 l1556 0 -4171 -4172 c-3505 -3506 -4175 -4181 -4194
-4223 -112 -248 32 -528 299 -577 78 -15 178 0 254 38 43 21 801 775 4220
4192 l4167 4167 0 -1556 c0 -1001 4 -1576 10 -1610 25 -132 112 -242 238 -302
61 -29 75 -32 162 -31 126 0 188 25 274 105 46 43 72 77 97 131 l34 73 3 2085
c2 1892 1 2092 -14 2165 -20 98 -42 143 -102 207 -56 60 -112 90 -211 112 -67
15 -260 16 -2145 15 -1790 0 -2078 -2 -2126 -15z"/>
</g>
</svg>
